# Blender 4.0.1
# www.blender.org
mtllib background.mtl
o leftwall
v -0.710000 8.967894 -1.135392
v -0.710000 0.080000 -1.135392
v -0.710000 8.967894 9.524720
v -0.710000 0.080000 9.524720
v -1.030000 8.967894 -1.135392
v -1.030000 0.080000 -1.135392
v -1.030000 8.967894 9.524720
v -1.030000 0.080000 9.524720
v -1.030000 0.080000 4.303010
v -0.710000 8.967894 4.303010
v -1.030000 8.967894 4.303010
v -0.710000 0.080000 4.303010
vn -0.0000 1.0000 -0.0000
vn -0.0000 -0.0000 1.0000
vn -1.0000 -0.0000 -0.0000
vn -0.0000 -1.0000 -0.0000
vn 1.0000 -0.0000 -0.0000
vn -0.0000 -0.0000 -1.0000
vt 1.568359 0.802734
vt 1.568359 0.998047
vt 0.005859 0.998047
vt 0.005859 0.802734
vt 0.184744 -0.003395
vt 0.184744 1.995226
vt -0.000147 1.995226
vt -0.000148 -0.003395
vt 0.997078 0.999118
vt 0.997078 -1.063058
vt 2.015269 -1.063058
vt 2.015269 0.999118
vt 0.125000 0.625000
vt 0.375000 0.625000
vt 0.375000 0.750000
vt 0.125000 0.750000
vt -0.004153 0.999442
vt 0.007264 -0.914064
vt 2.026529 -0.902016
vt 2.015111 1.011490
vt 0.375000 0.250000
vt 0.625000 0.250000
vt 0.625000 0.500000
vt 0.375000 0.500000
vt -0.007812 0.000000
vt 1.007812 0.000000
vt 1.007812 1.003906
vt -0.007812 1.003906
vt 0.125000 0.500000
vt 0.002953 0.999118
vt 0.002953 -1.063058
vt 2.857421 0.802734
vt 2.857422 0.998047
s 0
usemtl leftwall_out
f 12/17/5 10/18/5 3/19/5 4/20/5
usemtl leftwall_in
f 2/25/5 1/26/5 10/27/5 12/28/5
usemtl leftwall_back
f 10/1/1 11/2/1 7/3/1 3/4/1
f 4/5/2 3/6/2 7/7/2 8/8/2
f 9/9/3 11/10/3 5/11/3 6/12/3
f 9/13/4 12/14/4 4/15/4 8/16/4
f 6/21/6 5/22/6 1/23/6 2/24/6
f 6/29/4 2/24/4 12/14/4 9/13/4
f 8/30/3 7/31/3 11/10/3 9/9/3
f 1/32/1 5/33/1 11/2/1 10/1/1
o backwall
v -0.718370 0.081201 -0.812784
v -0.718370 8.964642 -0.812784
v -0.718370 0.081201 -1.132784
v -0.718370 8.964642 -1.132784
v 9.530141 0.081201 -0.812784
v 9.530141 8.964642 -0.812784
v 9.530141 0.081201 -1.132784
v 9.530141 8.964642 -1.132784
vn -1.0000 -0.0000 -0.0000
vn -0.0000 -0.0000 -1.0000
vn 1.0000 -0.0000 -0.0000
vn -0.0000 -0.0000 1.0000
vn -0.0000 -1.0000 -0.0000
vn -0.0000 1.0000 -0.0000
vt 0.375000 0.000000
vt 0.625000 0.000000
vt 0.625000 0.250000
vt 0.375000 0.250000
vt 1.958169 -0.001132
vt 1.958169 0.999163
vt -0.000147 0.999163
vt -0.000148 -0.001132
vt 0.375000 0.500000
vt 0.625000 0.500000
vt 0.625000 0.750000
vt 0.375000 0.750000
vt 0.004219 1.001118
vt 0.004219 0.007546
vt 1.993881 0.007546
vt 1.993881 1.001119
vt 0.125000 0.500000
vt 0.125000 0.750000
vt 0.875000 0.500000
vt 0.875000 0.750000
s 0
usemtl backwall_front
f 17/46/10 18/47/10 14/48/10 13/49/10
usemtl backwall_back
f 13/34/7 14/35/7 16/36/7 15/37/7
f 15/38/8 16/39/8 20/40/8 19/41/8
f 19/42/9 20/43/9 18/44/9 17/45/9
f 15/50/11 19/42/11 17/45/11 13/51/11
f 20/43/12 16/52/12 14/53/12 18/44/12
o floor
v -0.729623 0.068270 9.524664
v -0.729623 0.411392 9.524664
v -0.652006 0.068270 -0.737983
v -0.729623 0.411392 -0.834839
v 9.524398 0.068270 9.547873
v 9.524398 0.411392 9.547873
v 9.524398 0.068270 -0.811630
v 9.524398 0.411392 -0.811630
vn -0.9936 -0.1129 -0.0037
vn -0.0024 -0.1400 -0.9901
vn 1.0000 -0.0000 -0.0000
vn -0.0023 -0.0000 1.0000
vn -0.0000 -1.0000 -0.0000
vn -0.0000 1.0000 -0.0000
vt -0.003906 0.000000
vt 1.007812 0.000000
vt 1.007812 0.250000
vt -0.003906 0.250000
vt 0.375000 0.250000
vt 0.625000 0.250000
vt 0.625000 0.500000
vt 0.375000 0.500000
vt 0.625000 0.750000
vt 0.375000 0.750000
vt 0.784286 0.414151
vt 0.782049 0.601638
vt -0.213974 0.589755
vt -0.211737 0.402269
vt 0.000984 -0.988281
vt 1.949999 -0.988281
vt 1.949999 0.992188
vt 0.000984 0.992188
vt 0.000271 -0.924630
vt 1.953937 -0.924630
vt 1.953937 1.001132
vt 0.000271 1.001132
s 0
usemtl bottomwall_back
f 23/68/17 27/69/17 25/70/17 21/71/17
usemtl bottomwall_front
f 28/72/18 24/73/18 22/74/18 26/75/18
usemtl bottomwall_left
f 21/54/13 22/55/13 24/56/13 23/57/13
f 23/58/14 24/59/14 28/60/14 27/61/14
f 27/61/15 28/60/15 26/62/15 25/63/15
f 25/64/16 26/65/16 22/66/16 21/67/16
